<?xml version="1.0" encoding="UTF-8" standalone="no"?>
<!DOCTYPE svg PUBLIC "-//W3C//DTD SVG 1.1//EN" "http://www.w3.org/Graphics/SVG/1.1/DTD/svg11.dtd">
<svg width="100%" height="100%" viewBox="0 0 512 512" version="1.1" xmlns="http://www.w3.org/2000/svg" xmlns:xlink="http://www.w3.org/1999/xlink" xml:space="preserve" xmlns:serif="http://www.serif.com/" style="fill-rule:evenodd;clip-rule:evenodd;stroke-linejoin:round;stroke-miterlimit:2;">
    <g transform="matrix(33.654413,0,0,33.654413,-7156.723126,-4953.341762)">
        <path d="M218.295,153.94C218.276,153.676 218.205,153.443 218.081,153.244C217.957,153.044 217.785,152.891 217.563,152.783C217.342,152.676 217.084,152.622 216.79,152.622C216.4,152.622 216.068,152.718 215.794,152.91C215.52,153.101 215.31,153.378 215.163,153.738C215.017,154.098 214.944,154.531 214.944,155.035C214.944,155.562 215.017,156.004 215.163,156.36C215.31,156.717 215.52,156.988 215.794,157.172C216.068,157.356 216.393,157.449 216.768,157.449C217.055,157.449 217.305,157.398 217.519,157.298C217.733,157.198 217.905,157.058 218.036,156.877C218.168,156.696 218.254,156.48 218.295,156.23L220.566,156.253C220.523,156.763 220.347,157.259 220.038,157.74C219.729,158.221 219.292,158.617 218.726,158.928C218.161,159.239 217.494,159.395 216.724,159.395C215.946,159.395 215.248,159.224 214.63,158.884C214.012,158.543 213.528,158.044 213.178,157.388C212.828,156.731 212.653,155.947 212.653,155.035C212.653,154.116 212.832,153.328 213.189,152.671C213.546,152.015 214.032,151.519 214.646,151.182C215.261,150.844 215.953,150.676 216.724,150.676C217.434,150.676 218.067,150.804 218.621,151.06C219.175,151.316 219.622,151.689 219.961,152.181C220.3,152.673 220.501,153.259 220.566,153.94L218.295,153.94Z" style="fill:rgb(110,143,57);fill-rule:nonzero;"/>
        <path d="M221.06,152.914L223.275,152.914L223.275,159.278L221.06,159.278L221.06,152.914ZM222.161,152.223C221.962,152.223 221.778,152.177 221.611,152.085C221.443,151.993 221.307,151.869 221.203,151.713C221.1,151.557 221.048,151.387 221.048,151.203C221.048,151.02 221.1,150.849 221.203,150.691C221.307,150.532 221.443,150.408 221.611,150.319C221.778,150.229 221.962,150.184 222.161,150.184C222.361,150.184 222.544,150.229 222.712,150.319C222.88,150.408 223.014,150.532 223.113,150.691C223.213,150.849 223.263,151.02 223.263,151.203C223.263,151.387 223.213,151.557 223.113,151.713C223.014,151.869 222.88,151.993 222.712,152.085C222.544,152.177 222.361,152.223 222.161,152.223Z" style="fill:rgb(110,143,57);fill-rule:nonzero;"/>
        <path d="M227.587,154.521L223.453,154.521L223.453,152.914L227.587,152.914L227.587,154.521ZM226.483,151.391L226.483,157.239C226.483,157.335 226.5,157.414 226.534,157.477C226.568,157.54 226.617,157.586 226.683,157.615C226.749,157.644 226.834,157.662 226.94,157.669C227.083,157.676 227.327,157.665 227.67,157.634L227.67,159.291C227.371,159.344 227.022,159.371 226.624,159.371C226.106,159.371 225.672,159.303 225.321,159.167C224.971,159.03 224.706,158.821 224.527,158.538C224.348,158.255 224.263,157.897 224.27,157.464L224.27,151.391L226.483,151.391Z" style="fill:rgb(110,143,57);fill-rule:nonzero;"/>
    </g>
</svg>
